<svg width="340" height="74" viewBox="0 0 340 74" fill="none" xmlns="http://www.w3.org/2000/svg">
  <rect x="0" y="0" width="340" height="74" rx="10" fill="white"/>
  <g transform="translate(10,4) scale(0.95)">
    <path d="M69.866 31.9076L62.5472 39.188C60.518 37.2724 57.7624 36.0936 54.7241 36.0936C48.481 36.0936 43.4188 41.0763 43.4188 47.2215C43.4188 47.7073 43.4022 48.1875 43.3689 48.6623C43.0473 53.3995 41.1622 57.7111 38.2181 61.1001C37.8244 61.5532 37.4141 61.9897 36.9817 62.399C33.0617 66.2302 27.667 68.5879 21.7122 68.5879C9.71947 68.5879 0 59.0208 0 47.2215C0 35.4223 9.71947 25.8498 21.7122 25.8498C25.854 25.8498 29.7184 26.9903 33.0119 28.9715V23.1046C33.0119 17.5269 37.6082 13.0026 43.2803 13.0026H43.4188V26.9303C40.9737 28.2511 38.7947 29.9865 36.9817 32.0385C35.335 33.8996 33.9877 36.0226 33.0119 38.3366C32.4907 39.5646 32.0747 40.8417 31.7754 42.1624C29.907 38.5604 26.1034 36.0936 21.7122 36.0936C15.4691 36.0936 10.407 41.0763 10.407 47.2215C10.407 53.3668 15.4691 58.3441 21.7122 58.3441C26.1034 58.3441 29.9125 55.8772 31.7754 52.2752C32.5683 50.7526 33.0119 49.039 33.0119 47.2215C33.0119 41.9169 34.969 37.076 38.2181 33.3375C39.704 31.6239 41.4616 30.1503 43.4188 28.9715C46.7122 26.9903 50.5823 25.8498 54.7241 25.8498C60.6123 25.8498 65.9571 28.1583 69.866 31.9076Z" fill="#E47B2A"/>
    <path d="M76.4307 47.2213C76.4307 48.8423 76.2478 50.414 75.8986 51.9313C73.7195 61.4655 65.0647 68.5878 54.7242 68.5878C48.7028 68.5878 43.2582 66.1755 39.3271 62.2843L46.6459 55.0038C48.7028 57.0669 51.5637 58.3438 54.7242 58.3438C59.2539 58.3438 63.1684 55.7188 64.9649 51.9313H46.3742C45.5591 50.545 45.0989 48.9351 45.0989 47.2213C45.0989 45.2567 45.7033 43.4338 46.7401 41.922H75.7599C76.1979 43.6139 76.4307 45.3931 76.4307 47.2213Z" fill="#E47B2A"/>
    <path d="M43.4188 7.12193C43.4188 4.29317 41.0891 2 38.2152 2C35.3414 2 33.0117 4.29317 33.0117 7.12193C33.0117 9.9507 35.3414 12.2439 38.2152 12.2439C41.0891 12.2439 43.4188 9.9507 43.4188 7.12193Z" fill="#8D8D8D"/>
  </g>
  <text x="92" y="33" font-family="Arial, sans-serif" font-size="21" font-weight="700" fill="#E47B2A">HR</text>
  <text x="126" y="33" font-family="Arial, sans-serif" font-size="21" font-weight="700" fill="#202938">Managment</text>
  <text x="92" y="54" font-family="Arial, sans-serif" font-size="19" font-weight="700" fill="#202938">System</text>
</svg>
