<svg width="280" height="70" viewBox="0 0 280 70" fill="none" xmlns="http://www.w3.org/2000/svg">
<g clip-path="url(#clip0_411_43)">
<path d="M85.7065 22.1845V1.5072H95.2495C102.122 1.5072 106.833 5.5836 106.833 11.8459C106.833 18.1081 102.122 22.1845 95.2495 22.1845H85.7065ZM90.568 18.2559H95.0094C99.1808 18.2559 101.912 15.8041 101.912 11.8459C101.912 7.88766 99.1808 5.4359 95.0094 5.4359H90.568V18.2559Z" fill="white"/>
<path d="M110.5 22.1845V1.5072H115.362V22.1845H110.5Z" fill="white"/>
<path d="M127.248 22.539C123.917 22.539 120.556 21.5642 118.696 20.1463L120.346 16.5427C122.117 17.8128 124.758 18.699 127.278 18.699C130.159 18.699 131.33 17.7537 131.33 16.4835C131.33 12.6139 119.116 15.2724 119.116 7.59224C119.116 4.07708 121.997 1.15271 127.969 1.15271C130.609 1.15271 133.31 1.77303 135.261 2.98414L133.761 6.61745C131.81 5.5245 129.799 4.9928 127.939 4.9928C125.058 4.9928 123.947 6.0562 123.947 7.35592C123.947 11.1665 136.161 8.53749 136.161 16.1291C136.161 19.5851 133.25 22.539 127.248 22.539Z" fill="white"/>
<path d="M162.177 17.5764V11.521H166.618V19.9101C164.308 21.6233 161.127 22.539 158.126 22.539C151.523 22.539 146.662 18.0786 146.662 11.8459C146.662 5.61312 151.523 1.15271 158.215 1.15271C161.907 1.15271 164.968 2.39335 167.008 4.72695L163.888 7.56271C162.357 5.96758 160.586 5.22911 158.456 5.22911C154.374 5.22911 151.583 7.91717 151.583 11.8459C151.583 15.7155 154.374 18.4626 158.395 18.4626C159.716 18.4626 160.947 18.2264 162.177 17.5764Z" fill="white"/>
<path d="M171.133 22.1845V1.5072H175.996V18.2854H186.529V22.1845H171.133Z" fill="white"/>
<path d="M199.067 22.539C192.435 22.539 187.573 17.99 187.573 11.8459C187.573 5.70173 192.435 1.15271 199.067 1.15271C205.669 1.15271 210.56 5.6722 210.56 11.8459C210.56 18.0195 205.669 22.539 199.067 22.539ZM199.067 18.4626C202.818 18.4626 205.639 15.7746 205.639 11.8459C205.639 7.91717 202.818 5.22911 199.067 5.22911C195.316 5.22911 192.496 7.91717 192.496 11.8459C192.496 15.7746 195.316 18.4626 199.067 18.4626Z" fill="white"/>
<path d="M229.639 11.4324C231.98 12.1708 233.48 13.9432 233.48 16.5427C233.48 20.1168 230.599 22.1845 225.078 22.1845H214.215V1.5072H224.478C229.73 1.5072 232.43 3.66356 232.43 6.88332C232.43 8.95106 231.35 10.5462 229.639 11.4324ZM223.878 5.11098H219.046V9.98493H223.878C226.247 9.98493 227.539 9.15783 227.539 7.53319C227.539 5.90853 226.247 5.11098 223.878 5.11098ZM224.718 18.5809C227.238 18.5809 228.589 17.8128 228.589 16.0405C228.589 14.2976 227.238 13.4705 224.718 13.4705H219.046V18.5809H224.718Z" fill="white"/>
<path d="M252.856 22.1845L250.994 17.7537H241.242L239.382 22.1845H234.4L243.764 1.5072H248.564L257.957 22.1845H252.856ZM242.803 14.1204H249.465L246.133 6.20392L242.803 14.1204Z" fill="white"/>
<path d="M260.137 22.1845V1.5072H264.999V18.2854H275.532V22.1845H260.137Z" fill="white"/>
<path d="M92.9491 47.3765C90.2426 47.3765 87.5117 46.5845 86 45.4325L87.341 42.5044C88.7796 43.5364 90.9253 44.2565 92.9735 44.2565C95.3142 44.2565 96.2651 43.4884 96.2651 42.4564C96.2651 39.3122 86.3414 41.4724 86.3414 35.2321C86.3414 32.3761 88.682 30 93.5342 30C95.68 30 97.8744 30.5041 99.4592 31.4882L98.24 34.4402C96.6552 33.5521 95.0215 33.1202 93.5098 33.1202C91.1691 33.1202 90.2669 33.9842 90.2669 35.0401C90.2669 38.1362 100.191 36.0002 100.191 42.1684C100.191 44.9764 97.8255 47.3765 92.9491 47.3765Z" fill="white"/>
<path d="M106.815 43.9686H116.105V47.0887H102.89V30.2882H115.788V33.4083H106.815V37.0565H114.74V40.0805H106.815V43.9686Z" fill="white"/>
<path d="M134.365 47.0887H130.123L126.831 42.4085H123.198V47.0887H119.248V30.2882H126.636C131.196 30.2882 134.048 32.6162 134.048 36.3843C134.048 38.9045 132.756 40.7525 130.537 41.6885L134.365 47.0887ZM130.05 36.3843C130.05 34.5363 128.83 33.4564 126.417 33.4564H123.198V39.3124H126.417C128.83 39.3124 130.05 38.2085 130.05 36.3843Z" fill="white"/>
<path d="M149.661 30.2882H153.587L146.199 47.0887H142.298L134.934 30.2882H139.201L144.395 42.2886L149.661 30.2882Z" fill="white"/>
<path d="M155.012 47.0887V30.2882H158.962V47.0887H155.012Z" fill="white"/>
<path d="M171.18 47.3765C165.89 47.3765 161.94 43.7523 161.94 38.6883C161.94 33.6242 165.89 30 171.206 30C174.156 30 176.618 31.0561 178.228 32.9762L175.692 35.2802C174.545 33.9842 173.108 33.3122 171.401 33.3122C168.206 33.3122 165.938 35.5202 165.938 38.6883C165.938 41.8564 168.206 44.0643 171.401 44.0643C173.108 44.0643 174.545 43.3923 175.692 42.0723L178.228 44.3764C176.618 46.3204 174.156 47.3765 171.18 47.3765Z" fill="white"/>
<path d="M184.82 43.9686H194.111V47.0887H180.896V30.2882H193.794V33.4083H184.82V37.0565H192.745V40.0805H184.82V43.9686Z" fill="white"/>
<path d="M202.861 47.3765C200.155 47.3765 197.425 46.5845 195.913 45.4325L197.254 42.5044C198.692 43.5364 200.838 44.2565 202.886 44.2565C205.226 44.2565 206.178 43.4884 206.178 42.4564C206.178 39.3122 196.254 41.4724 196.254 35.2321C196.254 32.3761 198.594 30 203.446 30C205.592 30 207.786 30.5041 209.371 31.4882L208.153 34.4402C206.568 33.5521 204.934 33.1202 203.422 33.1202C201.081 33.1202 200.18 33.9842 200.18 35.0401C200.18 38.1362 210.104 36.0002 210.104 42.1684C210.104 44.9764 207.739 47.3765 202.861 47.3765Z" fill="white"/>
<path d="M69.866 31.9076L62.5472 39.188C60.518 37.2724 57.7624 36.0936 54.7241 36.0936C48.481 36.0936 43.4188 41.0763 43.4188 47.2215C43.4188 47.7073 43.4022 48.1875 43.3689 48.6623C43.0473 53.3995 41.1622 57.7111 38.2181 61.1001C37.8244 61.5532 37.4141 61.9897 36.9817 62.399C33.0617 66.2302 27.667 68.5879 21.7122 68.5879C9.71947 68.5879 0 59.0208 0 47.2215C0 35.4223 9.71947 25.8498 21.7122 25.8498C25.854 25.8498 29.7184 26.9903 33.0119 28.9715V23.1046C33.0119 17.5269 37.6082 13.0026 43.2803 13.0026H43.4188V26.9303C40.9737 28.2511 38.7947 29.9865 36.9817 32.0385C35.335 33.8996 33.9877 36.0226 33.0119 38.3366C32.4907 39.5646 32.0747 40.8417 31.7754 42.1624C29.907 38.5604 26.1034 36.0936 21.7122 36.0936C15.4691 36.0936 10.407 41.0763 10.407 47.2215C10.407 53.3668 15.4691 58.3441 21.7122 58.3441C26.1034 58.3441 29.9125 55.8772 31.7754 52.2752C32.5683 50.7526 33.0119 49.039 33.0119 47.2215C33.0119 41.9169 34.969 37.076 38.2181 33.3375C39.704 31.6239 41.4616 30.1503 43.4188 28.9715C46.7122 26.9903 50.5823 25.8498 54.7241 25.8498C60.6123 25.8498 65.9571 28.1583 69.866 31.9076Z" fill="white"/>
<path d="M76.4307 47.2213C76.4307 48.8423 76.2478 50.414 75.8986 51.9313C73.7195 61.4655 65.0647 68.5878 54.7242 68.5878C48.7028 68.5878 43.2582 66.1755 39.3271 62.2843L46.6459 55.0038C48.7028 57.0669 51.5637 58.3438 54.7242 58.3438C59.2539 58.3438 63.1684 55.7188 64.9649 51.9313H46.3742C45.5591 50.545 45.0989 48.9351 45.0989 47.2213C45.0989 45.2567 45.7033 43.4338 46.7401 41.922H75.7599C76.1979 43.6139 76.4307 45.3931 76.4307 47.2213Z" fill="white"/>
<path d="M43.4188 7.12193C43.4188 4.29317 41.0891 2 38.2152 2C35.3414 2 33.0117 4.29317 33.0117 7.12193C33.0117 9.9507 35.3414 12.2439 38.2152 12.2439C41.0891 12.2439 43.4188 9.9507 43.4188 7.12193Z" fill="white"/>
</g>
<defs>
<clipPath id="clip0_411_43">
<rect width="280" height="70" fill="white"/>
</clipPath>
</defs>
</svg>
